<svg data-v-fde0c5aa="" xmlns="http://www.w3.org/2000/svg" viewBox="0 0 120 25" class="iconLeft">
  <defs data-v-fde0c5aa=""/>
  <rect data-v-fde0c5aa="" fill="transparent" x="0" y="0" width="300px" height="300px" class="logo-background-square"/>
  <defs data-v-fde0c5aa=""/>
  <g data-v-fde0c5aa="" id="e7e22277-d497-4c4c-9f36-1bad891e41b5" fill="#000000" transform="matrix(1.1646428353720708,0,0,1.1646428353720708,38.49092722861533,0.8244551866535037)">
    <path d="M4.45 6.40L4.45 6.40Q5.45 6.40 6.16 6.89L6.16 6.89L6.16 6.89Q6.87 7.38 7.24 8.20L7.24 8.20L7.24 8.20Q7.60 9.03 7.60 10.02L7.60 10.02L7.60 10.02Q7.60 11.02 7.24 11.84L7.24 11.84L7.24 11.84Q6.87 12.67 6.16 13.16L6.16 13.16L6.16 13.16Q5.45 13.65 4.45 13.65L4.45 13.65L4.45 13.65Q3.35 13.65 2.45 13.05L2.45 13.05L2.42 13.51L0.80 13.51L0.80 3.01L2.53 3.01L2.53 7.03L2.53 7.03Q3.39 6.40 4.45 6.40L4.45 6.40ZM4.20 12.22L4.20 12.22Q4.97 12.22 5.40 11.62L5.40 11.62L5.40 11.62Q5.82 11.02 5.82 10.02L5.82 10.02L5.82 10.02Q5.82 9.03 5.40 8.43L5.40 8.43L5.40 8.43Q4.97 7.83 4.20 7.83L4.20 7.83L4.20 7.83Q3.32 7.83 2.88 8.41L2.88 8.41L2.88 8.41Q2.45 9.00 2.45 10.02L2.45 10.02L2.45 10.02Q2.45 11.05 2.88 11.63L2.88 11.63L2.88 11.63Q3.32 12.22 4.20 12.22L4.20 12.22ZM11.98 13.65L11.98 13.65Q10.88 13.65 10.07 13.16L10.07 13.16L10.07 13.16Q9.25 12.67 8.82 11.84L8.82 11.84L8.82 11.84Q8.39 11.02 8.39 10.02L8.39 10.02L8.39 10.02Q8.39 9.03 8.82 8.19L8.82 8.19L8.82 8.19Q9.25 7.35 10.07 6.86L10.07 6.86L10.07 6.86Q10.88 6.37 11.98 6.37L11.98 6.37L11.98 6.37Q13.09 6.37 13.90 6.86L13.90 6.86L13.90 6.86Q14.71 7.35 15.15 8.19L15.15 8.19L15.15 8.19Q15.58 9.03 15.58 10.02L15.58 10.02L15.58 10.02Q15.58 11.02 15.15 11.84L15.15 11.84L15.15 11.84Q14.71 12.67 13.90 13.16L13.90 13.16L13.90 13.16Q13.09 13.65 11.98 13.65L11.98 13.65ZM11.98 12.22L11.98 12.22Q12.84 12.22 13.32 11.62L13.32 11.62L13.32 11.62Q13.80 11.02 13.80 10.02L13.80 10.02L13.80 10.02Q13.80 9.02 13.32 8.41L13.32 8.41L13.32 8.41Q12.84 7.80 11.98 7.80L11.98 7.80L11.98 7.80Q11.13 7.80 10.65 8.41L10.65 8.41L10.65 8.41Q10.16 9.02 10.16 10.02L10.16 10.02L10.16 10.02Q10.16 11.02 10.65 11.62L10.65 11.62L10.65 11.62Q11.13 12.22 11.98 12.22L11.98 12.22ZM16.79 13.51L16.79 6.51L18.41 6.51L18.45 7.25L18.45 7.25Q18.76 6.90 19.24 6.64L19.24 6.64L19.24 6.64Q19.73 6.37 20.26 6.37L20.26 6.37L20.26 6.37Q20.43 6.37 20.57 6.40L20.57 6.40L20.44 8.11L20.44 8.11Q20.17 8.04 19.84 8.04L19.84 8.04L19.84 8.04Q19.40 8.04 19.04 8.24L19.04 8.24L19.04 8.24Q18.68 8.44 18.52 8.74L18.52 8.74L18.52 13.51L16.79 13.51ZM21.41 5.45L21.41 3.71L23.14 3.71L23.14 5.45L21.41 5.45ZM21.41 13.51L21.41 6.51L23.14 6.51L23.14 13.51L21.41 13.51ZM28.29 6.40L28.29 6.40Q29.60 6.40 30.27 7.27L30.27 7.27L30.27 7.27Q30.94 8.13 30.94 9.60L30.94 9.60L30.94 13.51L29.20 13.51L29.20 9.74L29.20 9.74Q29.20 8.76 28.88 8.29L28.88 8.29L28.88 8.29Q28.55 7.83 27.82 7.83L27.82 7.83L27.82 7.83Q27.02 7.83 26.50 8.43L26.50 8.43L26.50 13.51L24.77 13.51L24.77 6.51L26.39 6.51L26.42 7L26.42 7Q27.30 6.40 28.29 6.40L28.29 6.40ZM35.27 17.04L35.27 17.04Q33.78 17.04 32.90 16.50L32.90 16.50L32.90 16.50Q32.02 15.96 32.02 15.04L32.02 15.04L32.02 15.04Q32.02 14.03 33.15 13.38L33.15 13.38L33.15 13.38Q32.54 13.01 32.54 12.39L32.54 12.39L32.54 12.39Q32.54 12.07 32.73 11.82L32.73 11.82L32.73 11.82Q32.91 11.56 33.24 11.41L33.24 11.41L33.24 11.41Q32.70 11.03 32.43 10.44L32.43 10.44L32.43 10.44Q32.16 9.86 32.16 9.16L32.16 9.16L32.16 9.16Q32.16 8.39 32.49 7.75L32.49 7.75L32.49 7.75Q32.83 7.11 33.47 6.74L33.47 6.74L33.47 6.74Q34.12 6.37 35 6.37L35 6.37L35 6.37Q35.92 6.37 36.60 6.82L36.60 6.82L36.60 6.82Q36.83 6.69 37.23 6.60L37.23 6.60L37.23 6.60Q37.63 6.51 38.09 6.51L38.09 6.51L38.54 6.51L38.43 7.60L37.80 7.60L37.80 7.60Q37.56 7.60 37.41 7.62L37.41 7.62L37.41 7.62Q37.83 8.26 37.83 9.16L37.83 9.16L37.83 9.16Q37.83 9.93 37.50 10.56L37.50 10.56L37.50 10.56Q37.17 11.20 36.53 11.57L36.53 11.57L36.53 11.57Q35.88 11.94 35 11.94L35 11.94L35 11.94Q34.68 11.94 34.26 11.84L34.26 11.84L34.26 11.84Q34.10 11.91 34.10 12.07L34.10 12.07L34.10 12.07Q34.10 12.25 34.32 12.36L34.32 12.36L34.32 12.36Q34.54 12.46 35.06 12.53L35.06 12.53L36.26 12.68L36.26 12.68Q38.67 13.01 38.67 14.71L38.67 14.71L38.67 14.71Q38.67 15.78 37.77 16.41L37.77 16.41L37.77 16.41Q36.86 17.04 35.27 17.04L35.27 17.04ZM35 10.65L35 10.65Q35.60 10.65 35.93 10.25L35.93 10.25L35.93 10.25Q36.26 9.86 36.26 9.16L36.26 9.16L36.26 9.16Q36.26 8.46 35.93 8.06L35.93 8.06L35.93 8.06Q35.60 7.66 35 7.66L35 7.66L35 7.66Q34.38 7.66 34.05 8.06L34.05 8.06L34.05 8.06Q33.73 8.46 33.73 9.16L33.73 9.16L33.73 9.16Q33.73 9.86 34.05 10.25L34.05 10.25L34.05 10.25Q34.38 10.65 35 10.65L35 10.65ZM35.34 15.72L35.34 15.72Q37.13 15.72 37.13 14.84L37.13 14.84L37.13 14.84Q37.13 14.45 36.82 14.26L36.82 14.26L36.82 14.26Q36.51 14.07 35.80 13.96L35.80 13.96L34.26 13.73L34.26 13.73Q33.46 14.06 33.46 14.71L33.46 14.71L33.46 14.71Q33.46 15.22 33.95 15.47L33.95 15.47L33.95 15.47Q34.44 15.72 35.34 15.72L35.34 15.72ZM43.15 6.40L43.15 6.40Q44.14 6.40 44.86 6.89L44.86 6.89L44.86 6.89Q45.57 7.38 45.93 8.20L45.93 8.20L45.93 8.20Q46.30 9.03 46.30 10.02L46.30 10.02L46.30 10.02Q46.30 11.02 45.93 11.84L45.93 11.84L45.93 11.84Q45.57 12.67 44.86 13.16L44.86 13.16L44.86 13.16Q44.14 13.65 43.15 13.65L43.15 13.65L43.15 13.65Q42.04 13.65 41.15 13.05L41.15 13.05L41.12 13.51L39.49 13.51L39.49 3.01L41.23 3.01L41.23 7.03L41.23 7.03Q42.08 6.40 43.15 6.40L43.15 6.40ZM42.90 12.22L42.90 12.22Q43.67 12.22 44.09 11.62L44.09 11.62L44.09 11.62Q44.52 11.02 44.52 10.02L44.52 10.02L44.52 10.02Q44.52 9.03 44.09 8.43L44.09 8.43L44.09 8.43Q43.67 7.83 42.90 7.83L42.90 7.83L42.90 7.83Q42.01 7.83 41.58 8.41L41.58 8.41L41.58 8.41Q41.15 9.00 41.15 10.02L41.15 10.02L41.15 10.02Q41.15 11.05 41.58 11.63L41.58 11.63L41.58 11.63Q42.01 12.22 42.90 12.22L42.90 12.22ZM50.68 13.65L50.68 13.65Q49.57 13.65 48.76 13.16L48.76 13.16L48.76 13.16Q47.95 12.67 47.52 11.84L47.52 11.84L47.52 11.84Q47.08 11.02 47.08 10.02L47.08 10.02L47.08 10.02Q47.08 9.03 47.52 8.19L47.52 8.19L47.52 8.19Q47.95 7.35 48.76 6.86L48.76 6.86L48.76 6.86Q49.57 6.37 50.68 6.37L50.68 6.37L50.68 6.37Q51.79 6.37 52.60 6.86L52.60 6.86L52.60 6.86Q53.41 7.35 53.84 8.19L53.84 8.19L53.84 8.19Q54.28 9.03 54.28 10.02L54.28 10.02L54.28 10.02Q54.28 11.02 53.84 11.84L53.84 11.84L53.84 11.84Q53.41 12.67 52.60 13.16L52.60 13.16L52.60 13.16Q51.79 13.65 50.68 13.65L50.68 13.65ZM50.68 12.22L50.68 12.22Q51.53 12.22 52.02 11.62L52.02 11.62L52.02 11.62Q52.50 11.02 52.50 10.02L52.50 10.02L52.50 10.02Q52.50 9.02 52.02 8.41L52.02 8.41L52.02 8.41Q51.53 7.80 50.68 7.80L50.68 7.80L50.68 7.80Q49.83 7.80 49.34 8.41L49.34 8.41L49.34 8.41Q48.86 9.02 48.86 10.02L48.86 10.02L48.86 10.02Q48.86 11.02 49.34 11.62L49.34 11.62L49.34 11.62Q49.83 12.22 50.68 12.22L50.68 12.22ZM54.81 13.51L57.13 10.01L54.81 6.51L56.88 6.51L58.16 8.54L59.33 6.51L61.40 6.51L59.08 10.01L61.40 13.51L59.33 13.51L58.06 11.48L56.88 13.51L54.81 13.51Z"/>
  </g>
  <defs data-v-fde0c5aa="">
    <linearGradient data-v-fde0c5aa="" gradientTransform="rotate(25)" id="0dc28b6f-c97c-4587-9735-309c8361cc64" x1="0%" y1="0%" x2="100%" y2="0%">
      <stop data-v-fde0c5aa="" offset="0%" stop-color="#5106FF" stop-opacity="1"/>
      <stop data-v-fde0c5aa="" offset="100%" stop-color="#61CBF2" stop-opacity="1"/>
    </linearGradient>
  </defs>
  <g data-v-fde0c5aa="" id="e85937e3-5678-4b44-94cc-8342e5755cf8" stroke="none" fill="url(#0dc28b6f-c97c-4587-9735-309c8361cc64)" transform="matrix(0.31647127401006886,0,0,0.31647127401006886,5.035515339493144,-3.6401107289555132)">
    <path d="M83.365 32.672l-.007-.05a2.307 2.307 0 0 0-1.137-1.833L50.695 12.587a2.322 2.322 0 0 0-2.32 0L16.848 30.789a2.31 2.31 0 0 0-1.137 1.833l-.007.05c-.002.042-.017.083-.017.125v36.405a2.32 2.32 0 0 0 1.16 2.009l31.527 18.202c.026.015.056.02.082.034.126.066.257.121.395.163.046.014.09.031.136.042.176.043.357.072.546.072s.37-.029.546-.072c.046-.011.091-.028.136-.042a2.36 2.36 0 0 0 .395-.163c.027-.014.056-.019.082-.034l31.527-18.202a2.32 2.32 0 0 0 1.16-2.009V32.798c.002-.043-.012-.083-.014-.126zm-33.83-15.398l27.006 15.592-27.006 15.592-27.007-15.592 27.007-15.592zM20.328 36.952l25.141 14.515a.74.74 0 0 0-.282.097l-2.622 1.515a.772.772 0 1 0 .774 1.339l2.622-1.515a.765.765 0 0 0 .312-.971l.943.545v30.91L20.328 67.863V36.952zm31.526 46.434v-30.91l.944-.545a.765.765 0 0 0 .311.972l2.622 1.515a.776.776 0 0 0 1.057-.283.772.772 0 0 0-.283-1.056l-2.622-1.515a.769.769 0 0 0-.283-.097l25.141-14.516v30.91L51.854 83.386z"/>
    <path d="M72.241 62.163l-2.622-1.515a.769.769 0 0 0-1.056.282.772.772 0 0 0 .283 1.056l2.622 1.515a.776.776 0 0 0 1.057-.283.772.772 0 0 0-.284-1.055zM77.487 65.191l-2.622-1.515a.772.772 0 1 0-.773 1.338l2.622 1.515a.776.776 0 0 0 1.057-.283.772.772 0 0 0-.284-1.055zM66.996 59.135l-2.622-1.515a.772.772 0 1 0-.773 1.338l2.622 1.515a.777.777 0 0 0 1.057-.282.773.773 0 0 0-.284-1.056zM61.751 56.107l-2.622-1.515a.772.772 0 1 0-.773 1.338l2.622 1.515a.776.776 0 0 0 1.057-.283.772.772 0 0 0-.284-1.055zM24.206 63.678l-2.622 1.513a.772.772 0 1 0 .773 1.339l2.622-1.513a.772.772 0 0 0 .283-1.056.77.77 0 0 0-1.056-.283zM39.942 54.593l-2.623 1.515a.772.772 0 1 0 .774 1.339l2.623-1.515a.772.772 0 0 0 .283-1.056.768.768 0 0 0-1.057-.283zM29.452 60.65l-2.622 1.513a.772.772 0 1 0 .774 1.339l2.622-1.513a.772.772 0 0 0 .283-1.056.77.77 0 0 0-1.057-.283zM34.697 57.621l-2.622 1.515a.772.772 0 1 0 .774 1.338l2.622-1.515a.772.772 0 1 0-.774-1.338z"/>
  </g>
</svg>