<svg class="iconLeft" viewBox="0 0 120 25" xmlns="http://www.w3.org/2000/svg" data-v-fde0c5aa=""><defs data-v-fde0c5aa=""></defs><rect class="logo-background-square" height="600px" width="600px" y="0" x="0" fill="transparent" data-v-fde0c5aa=""></rect><defs data-v-fde0c5aa=""></defs><g transform="matrix(1.2354858328534366,0,0,1.2354858328534366,35.722594005821655,4.284019388262313)" fill="#000000" id="1f4e3072-1771-427b-b377-7b0906463cbb" data-v-fde0c5aa=""><path d="M0.70 12.02L0.70 12.02L0.70 1.27L0.70 1.27Q0.70 1.05 0.92 1.05L0.92 1.05L4.29 1.05L4.29 1.05Q5.28 1.05 5.80 1.57L5.80 1.57L5.80 1.57Q6.32 2.08 6.32 3.07L6.32 3.07L6.32 5.64L6.32 5.64Q6.32 6.02 6.07 6.30L6.07 6.30L6.07 6.30Q5.82 6.58 5.43 6.64L5.43 6.64L5.43 6.67L5.43 6.67Q5.82 6.73 6.07 7L6.07 7L6.07 7Q6.32 7.27 6.32 7.66L6.32 7.66L6.32 10.23L6.32 10.23Q6.32 11.22 5.80 11.74L5.80 11.74L5.80 11.74Q5.28 12.25 4.29 12.25L4.29 12.25L0.92 12.25L0.92 12.25Q0.82 12.25 0.76 12.19L0.76 12.19L0.76 12.19Q0.70 12.13 0.70 12.02ZM2.62 7.57L2.62 10.40L3.89 10.40L3.89 10.40Q4.45 10.40 4.45 9.84L4.45 9.84L4.45 8.13L4.45 8.13Q4.45 7.57 3.89 7.57L3.89 7.57L2.62 7.57ZM2.62 2.90L2.62 5.73L3.89 5.73L3.89 5.73Q4.16 5.73 4.31 5.58L4.31 5.58L4.31 5.58Q4.45 5.44 4.45 5.18L4.45 5.18L4.45 3.46L4.45 3.46Q4.45 2.90 3.89 2.90L3.89 2.90L2.62 2.90ZM7.71 10.23L7.71 10.23L7.71 4.46L7.71 4.46Q7.71 3.47 8.22 2.96L8.22 2.96L8.22 2.96Q8.74 2.45 9.73 2.45L9.73 2.45L11.30 2.45L11.30 2.45Q12.29 2.45 12.80 2.96L12.80 2.96L12.80 2.96Q13.32 3.47 13.32 4.46L13.32 4.46L13.32 10.23L13.32 10.23Q13.32 11.22 12.80 11.74L12.80 11.74L12.80 11.74Q12.29 12.25 11.30 12.25L11.30 12.25L9.73 12.25L9.73 12.25Q8.74 12.25 8.22 11.74L8.22 11.74L8.22 11.74Q7.71 11.22 7.71 10.23ZM9.54 4.82L9.54 9.88L9.54 9.88Q9.54 10.45 10.10 10.45L10.10 10.45L10.99 10.45L10.99 10.45Q11.55 10.45 11.55 9.88L11.55 9.88L11.55 4.82L11.55 4.82Q11.55 4.26 10.99 4.26L10.99 4.26L10.10 4.26L10.10 4.26Q9.54 4.26 9.54 4.82L9.54 4.82ZM14.71 12.02L14.71 12.02L14.71 2.67L14.71 2.67Q14.71 2.57 14.77 2.51L14.77 2.51L14.77 2.51Q14.83 2.45 14.94 2.45L14.94 2.45L18.30 2.45L18.30 2.45Q19.29 2.45 19.80 2.96L19.80 2.96L19.80 2.96Q20.32 3.47 20.32 4.46L20.32 4.46L20.32 7.28L20.32 7.28Q20.32 8.50 19.53 8.99L19.53 8.99L20.25 12.00L20.25 12.00Q20.32 12.25 20.06 12.25L20.06 12.25L18.69 12.25L18.69 12.25Q18.49 12.25 18.45 12.05L18.45 12.05L17.78 9.30L16.54 9.30L16.54 12.02L16.54 12.02Q16.54 12.13 16.47 12.19L16.47 12.19L16.47 12.19Q16.41 12.25 16.31 12.25L16.31 12.25L14.94 12.25L14.94 12.25Q14.83 12.25 14.77 12.19L14.77 12.19L14.77 12.19Q14.71 12.13 14.71 12.02ZM16.54 4.26L16.54 7.49L17.93 7.49L17.93 7.49Q18.49 7.49 18.49 6.93L18.49 6.93L18.49 4.82L18.49 4.82Q18.49 4.26 17.93 4.26L17.93 4.26L16.54 4.26ZM21.71 2.67L21.71 12.02L21.71 12.02Q21.71 12.25 21.94 12.25L21.94 12.25L23.39 12.25L23.39 12.25Q23.50 12.25 23.56 12.19L23.56 12.19L23.56 12.19Q23.62 12.13 23.62 12.02L23.62 12.02L23.62 2.67L23.62 2.67Q23.62 2.57 23.56 2.51L23.56 2.51L23.56 2.51Q23.50 2.45 23.39 2.45L23.39 2.45L21.94 2.45L21.94 2.45Q21.71 2.45 21.71 2.67L21.71 2.67ZM25.01 12.02L25.01 12.02L25.01 2.67L25.01 2.67Q25.01 2.57 25.07 2.51L25.07 2.51L25.07 2.51Q25.14 2.45 25.24 2.45L25.24 2.45L26.35 2.45L26.35 2.45Q26.52 2.45 26.60 2.63L26.60 2.63L29.23 7.98L29.23 2.67L29.23 2.67Q29.23 2.45 29.46 2.45L29.46 2.45L30.77 2.45L30.77 2.45Q30.87 2.45 30.93 2.51L30.93 2.51L30.93 2.51Q30.99 2.57 30.99 2.67L30.99 2.67L30.99 12.02L30.99 12.02Q30.99 12.13 30.93 12.19L30.93 12.19L30.93 12.19Q30.87 12.25 30.77 12.25L30.77 12.25L29.66 12.25L29.66 12.25Q29.49 12.25 29.41 12.07L29.41 12.07L26.78 6.72L26.78 12.02L26.78 12.02Q26.78 12.25 26.56 12.25L26.56 12.25L25.24 12.25L25.24 12.25Q25.14 12.25 25.07 12.19L25.07 12.19L25.07 12.19Q25.01 12.13 25.01 12.02ZM32.39 10.23L32.39 10.23L32.39 4.46L32.39 4.46Q32.39 3.47 32.90 2.96L32.90 2.96L32.90 2.96Q33.41 2.45 34.41 2.45L34.41 2.45L35.98 2.45L35.98 2.45Q36.96 2.45 37.47 2.96L37.47 2.96L37.47 2.96Q37.99 3.48 37.99 4.46L37.99 4.46L37.99 5.50L37.99 5.50Q37.99 5.61 37.93 5.67L37.93 5.67L37.93 5.67Q37.87 5.73 37.77 5.73L37.77 5.73L36.45 5.73L36.45 5.73Q36.23 5.73 36.23 5.50L36.23 5.50L36.23 4.82L36.23 4.82Q36.23 4.26 35.67 4.26L35.67 4.26L34.77 4.26L34.77 4.26Q34.21 4.26 34.21 4.82L34.21 4.82L34.21 9.88L34.21 9.88Q34.21 10.45 34.77 10.45L34.77 10.45L35.67 10.45L35.67 10.45Q36.23 10.45 36.23 9.88L36.23 9.88L36.23 8.67L35.50 8.67L35.50 8.67Q35.27 8.67 35.27 8.44L35.27 8.44L35.27 7.04L35.27 7.04Q35.27 6.82 35.50 6.82L35.50 6.82L37.77 6.82L37.77 6.82Q37.99 6.82 37.99 7.04L37.99 7.04L37.99 10.23L37.99 10.23Q37.99 11.22 37.47 11.73L37.47 11.73L37.47 11.73Q36.96 12.25 35.98 12.25L35.98 12.25L34.41 12.25L34.41 12.25Q33.41 12.25 32.90 11.74L32.90 11.74L32.90 11.74Q32.39 11.22 32.39 10.23ZM39.39 12.02L39.39 12.02L39.39 1.27L39.39 1.27Q39.39 1.05 39.61 1.05L39.61 1.05L42.98 1.05L42.98 1.05Q43.97 1.05 44.49 1.57L44.49 1.57L44.49 1.57Q45.01 2.08 45.01 3.07L45.01 3.07L45.01 5.64L45.01 5.64Q45.01 6.02 44.76 6.30L44.76 6.30L44.76 6.30Q44.51 6.58 44.13 6.64L44.13 6.64L44.13 6.67L44.13 6.67Q44.51 6.73 44.76 7L44.76 7L44.76 7Q45.01 7.27 45.01 7.66L45.01 7.66L45.01 10.23L45.01 10.23Q45.01 11.22 44.49 11.74L44.49 11.74L44.49 11.74Q43.97 12.25 42.98 12.25L42.98 12.25L39.61 12.25L39.61 12.25Q39.51 12.25 39.45 12.19L39.45 12.19L39.45 12.19Q39.39 12.13 39.39 12.02ZM41.31 7.57L41.31 10.40L42.58 10.40L42.58 10.40Q43.14 10.40 43.14 9.84L43.14 9.84L43.14 8.13L43.14 8.13Q43.14 7.57 42.58 7.57L42.58 7.57L41.31 7.57ZM41.31 2.90L41.31 5.73L42.58 5.73L42.58 5.73Q42.85 5.73 43.00 5.58L43.00 5.58L43.00 5.58Q43.14 5.44 43.14 5.18L43.14 5.18L43.14 3.46L43.14 3.46Q43.14 2.90 42.58 2.90L42.58 2.90L41.31 2.90ZM46.40 10.23L46.40 10.23L46.40 4.46L46.40 4.46Q46.40 3.47 46.92 2.96L46.92 2.96L46.92 2.96Q47.43 2.45 48.42 2.45L48.42 2.45L49.99 2.45L49.99 2.45Q50.98 2.45 51.50 2.96L51.50 2.96L51.50 2.96Q52.01 3.47 52.01 4.46L52.01 4.46L52.01 10.23L52.01 10.23Q52.01 11.22 51.50 11.74L51.50 11.74L51.50 11.74Q50.98 12.25 49.99 12.25L49.99 12.25L48.42 12.25L48.42 12.25Q47.43 12.25 46.92 11.74L46.92 11.74L46.92 11.74Q46.40 11.22 46.40 10.23ZM48.23 4.82L48.23 9.88L48.23 9.88Q48.23 10.45 48.79 10.45L48.79 10.45L49.68 10.45L49.68 10.45Q50.24 10.45 50.24 9.88L50.24 9.88L50.24 4.82L50.24 4.82Q50.24 4.26 49.68 4.26L49.68 4.26L48.79 4.26L48.79 4.26Q48.23 4.26 48.23 4.82L48.23 4.82ZM53.15 12.15L53.15 12.15L53.15 12.15Q53.13 12.11 53.13 12.07L53.13 12.07L53.13 12.07Q53.13 12.00 53.17 11.92L53.17 11.92L55.54 7.24L53.31 2.79L53.31 2.79Q53.23 2.65 53.29 2.55L53.29 2.55L53.29 2.55Q53.35 2.45 53.52 2.45L53.52 2.45L54.96 2.45L54.96 2.45Q55.18 2.45 55.28 2.65L55.28 2.65L56.62 5.48L57.97 2.65L57.97 2.65Q58.06 2.45 58.29 2.45L58.29 2.45L59.73 2.45L59.73 2.45Q59.90 2.45 59.96 2.55L59.96 2.55L59.96 2.55Q60.02 2.65 59.94 2.79L59.94 2.79L57.73 7.24L60.08 11.92L60.08 11.92Q60.12 12.00 60.12 12.07L60.12 12.07L60.12 12.07Q60.12 12.11 60.10 12.15L60.10 12.15L60.10 12.15Q60.05 12.25 59.88 12.25L59.88 12.25L58.43 12.25L58.43 12.25Q58.21 12.25 58.11 12.05L58.11 12.05L56.62 9.02L55.14 12.05L55.14 12.05Q55.04 12.25 54.82 12.25L54.82 12.25L53.38 12.25L53.38 12.25Q53.20 12.25 53.15 12.15Z"></path></g><defs data-v-fde0c5aa=""><linearGradient y2="0%" x2="100%" y1="0%" x1="0%" id="fe506362-3c26-491c-aca1-4e17cca364a5" gradientTransform="rotate(25)" data-v-fde0c5aa=""><stop stop-opacity="1" stop-color="#D0E90D" offset="0%" data-v-fde0c5aa=""></stop><stop stop-opacity="1" stop-color="#1536F1" offset="100%" data-v-fde0c5aa=""></stop></linearGradient></defs><g transform="matrix(0.2855300681204348,0,0,0.2855300681204348,5.017214720234489,-1.7764808048982612)" fill="url(#fe506362-3c26-491c-aca1-4e17cca364a5)" stroke="none" id="947265d5-5442-4792-a521-8b35e07b2f00" data-v-fde0c5aa=""><path d="M78.549 28.899L54 14.725a8 8 0 0 0-8 0L21.451 28.899a8 8 0 0 0-4 6.928v28.348a8.003 8.003 0 0 0 4 6.929L46 85.275a8.001 8.001 0 0 0 8 0l24.549-14.172c2.475-1.43 4-4.07 4-6.929V35.827a8.002 8.002 0 0 0-4-6.928zM50 21.653l20.549 11.865-20.547 11.863-20.551-11.863L50 21.653zM25.451 64.175V40.446L46 52.31v23.728L25.451 64.175zM54 76.037V52.311l20.549-11.863v23.728L54 76.037z"></path></g></svg>